<?xml version="1.0" standalone="no"?><!DOCTYPE svg PUBLIC "-//W3C//DTD SVG 1.1//EN" "http://www.w3.org/Graphics/SVG/1.1/DTD/svg11.dtd"><svg t="1754778714884" class="icon" viewBox="0 0 1024 1024" version="1.1" xmlns="http://www.w3.org/2000/svg" p-id="2083" xmlns:xlink="http://www.w3.org/1999/xlink" width="200" height="200"><path d="M317.722438 1020.584554c47.196276 15.778637 62.881823-27.600978 43.286525-43.33307-62.928368-43.33307-94.346007-122.179708-70.747869-193.113755 23.551593-78.800093 86.433416-110.310822 86.433416-228.534235 0 0 78.613915 59.111706 62.881823 149.734141 78.613915-90.622435 43.23998-208.845847 27.507889-264.001258 200.421265 106.401071 373.381187 338.845056 172.913377 535.915107-23.551593 19.688387 0 55.155411 35.373934 43.33307C1221.712642 709.340475 809.001225 244.359416 738.253356 189.15746c23.598138 55.155411 27.554433 141.82155-19.641842 185.201165C636.087848 63.068002 435.666583 0 435.666583 0c23.598138 161.556482-90.389711 334.935306-196.46497 468.937355-3.956295-67.024297-7.912591-110.310822-39.33023-169.422528C191.958792 413.688854 101.615625 508.267584 78.017488 626.490997c-31.464184 157.600187 23.551593 271.913849 239.70495 394.047012z" p-id="2084"></path></svg>