<?xml version="1.0" standalone="no"?><!DOCTYPE svg PUBLIC "-//W3C//DTD SVG 1.1//EN" "http://www.w3.org/Graphics/SVG/1.1/DTD/svg11.dtd"><svg t="1754778768347" class="icon" viewBox="0 0 1024 1024" version="1.1" xmlns="http://www.w3.org/2000/svg" p-id="3926" xmlns:xlink="http://www.w3.org/1999/xlink" width="200" height="200"><path d="M873.2 922.1c-7 6.8-20 19.4-41.9 19.3-2.7 0-6-0.2-9.6-0.8-20.5-3.5-31.2-14.8-38.4-22.2-1.5-1.6-3-3.2-4.8-4.7L739.2 875 564.6 703c-5.7-4.5-18.5-15.1-24.6-31.1-10.7-28.1 3.1-49.6 13.8-61.8l-9.3-9.2-2.4-2.6c-5.9-4.2-14.4-12.5-32-29.8-4.8-4.7-9.7-9.6-14.4-14.2l-66 79.7-125.6 156.4c-7.8 10.2-17.7 22.8-29.1 34.3-4.3 4.3-8.8 8.4-13.5 12.3L246 852.5c-16.3 13.4-31.5 21.1-48.7 25.6-8 2-16.4 3.1-24.9 3.1-32.4 0-65.9-14.9-83.3-36.9l-8.2-10.6c-14.5-21.9-19.5-49.1-15.7-80.4 3.3-17.7 6.5-26.1 14.2-38.1l1.8-2.5 5-6.1c4.2-5.4 9.4-11.1 14.8-16.6 5.5-5.5 11.2-10.7 16.6-15.6L142 652c21.3-19.7 43.3-40 66.4-58.9l46-40.9 62.2-55.8 65.7-58.3-118-116.8c-1.5 0.1-3.1 0.1-4.7 0.1-16.9 0-35.2-5.5-47.9-14.3l-1.9-1.3-20.1-19.2-35-31.9 18.7-26 85.6-83.1 38.8 36.4c11.8 9.7 39.6 32.6 35.5 70.3 28.5 28 46.2 45.1 63.9 62.3 16.4 15.9 32.8 31.8 57.7 56.1 0 0 28.9-29.5 32.9-33.6-6.1-15.1-10.3-30.2-13.1-46.7-6.5-37.6 8.4-69.2 15.1-81 12-21.1 26.2-40 42.2-56 13.2-13.2 28.3-24.2 44.3-33.6 19-11.2 37.5-24 58.8-30.8 31.5-10.1 65.1-6.6 96.5 2 7.7 2.1 15.4 4.5 23 7.2 5.5 1.9 19.5 4.3 23.2 8.7 5.3 6.2-13 18.3-17.4 22.6-15.2 14.9-30.4 29.7-45.7 44.6-2.7 2.7-5.5 5.4-8.2 8-14.2 14-28.5 27.9-42.7 41.9-2.1 2-4.3 4.3-6.6 6.3-1.5 1.2-3.1 2.7-4.6 4.1 3.9 4.6 11.1 11.8 20.6 19.7 4 3.3 7.7 7.3 11.3 11.2 1.1 1.2 2.4 2.7 3.6 4 0.4-0.4 7.1-7.2 7.1-7.2 1.9-1.9 3.8-3.7 5.6-5.2l114.4-109 22 54.3c4.3 11.4 6.2 22.3 8.1 32.7 7.4 40.7-5.2 78.4-10.9 92.8-10 25.1-26 49-46.2 69.2-30.6 30.6-69.6 51.2-109.8 58-6 1-12.3 1.5-18.6 1.5-22.9 0-45.5-6.4-60.6-11.8-5.3 4.7-10.5 9.4-15.9 13.8L567 474.8c9 9 52.5 52.3 61.7 61.5 6.7-5.7 18.6-13.7 35.7-13.7 2.9 0 6.1 0.2 9.4 0.8 19.5 3.4 29.5 13.4 36.1 20 1.2 1.2 2.5 2.5 4 3.8l37.4 37 174 173.6c1.6 1.2 20.2 16.9 28.1 30.3 11.8 20.1 6.9 48.7-4.5 63.8l-1.6 2.1-74.1 68.1z" fill="#333333" p-id="3927"></path></svg>